# xmcd
#
# Track frame offsets:
#	150
#	14455
#	29330
#	49895
#	66180
#	79410
#	94657
#	109582
#	124242
#	137112
#	147792
#	165057
#	176177
#	200422
#
# Disc length: 2854 seconds
#
# Revision: 0
# Processed by: cddbd v1.5.1PL0 Copyright (c) Steve Scherf et al.
# Submitted via: dBpowerAMP V4.0
#
DISCID=c00b240e
DTITLE=Pat james - It's my Life
DYEAR=2005
DGENRE=country
TTITLE0=She'Kind
TTITLE1=I'm The only Hell my Momma Ever Raised
TTITLE2=Farewell Party
TTITLE3=Camelia
TTITLE4=Cowboys Ain't Supposed to Cry
TTITLE5=It's all Coming Back
TTITLE6=Something
TTITLE7=He Likes the Young Ladies
TTITLE8=Begging to You
TTITLE9=I'am Gonna be a Cowboy
TTITLE10=What in the World
TTITLE11=I Needed You
TTITLE12=Night Life
TTITLE13=Man Walks Among Us
EXTD=
EXTT0=
EXTT1=
EXTT2=
EXTT3=
EXTT4=
EXTT5=
EXTT6=
EXTT7=
EXTT8=
EXTT9=
EXTT10=
EXTT11=
EXTT12=
EXTT13=
PLAYORDER=
